M48
; DRILL file {KiCad 9.0.7} date 2026-09-21T22:58:01+0100
; FORMAT={-:-/ absolute / metric / decimal}
; #@! TF.CreationDate,2026-09-21T22:58:01+01:00
; #@! TF.GenerationSoftware,Kicad,Pcbnew,9.0.7
; #@! TF.FileFunction,Plated,1,2,PTH
FMAT,2
METRIC
; #@! TA.AperFunction,Plated,PTH,ComponentDrill
T1C0.700
; #@! TA.AperFunction,Plated,PTH,ComponentDrill
T2C0.800
; #@! TA.AperFunction,Plated,PTH,ComponentDrill
T3C0.900
; #@! TA.AperFunction,Plated,PTH,ComponentDrill
T4C1.000
; #@! TA.AperFunction,Plated,PTH,ComponentDrill
T5C1.020
; #@! TA.AperFunction,Plated,PTH,ComponentDrill
T6C1.100
; #@! TA.AperFunction,Plated,PTH,ComponentDrill
T7C2.500
%
G90
G05
T1
X209.4Y-55.6
X209.4Y-63.22
X218.79Y-98.6
X226.41Y-98.6
T2
X188.365Y-53.44
X188.365Y-63.6
X190.905Y-53.44
X190.905Y-63.6
X193.445Y-53.44
X193.445Y-63.6
X195.985Y-53.44
X195.985Y-63.6
X198.525Y-53.44
X198.525Y-63.6
X201.065Y-53.44
X201.065Y-63.6
T3
X215.89Y-56.24
X215.89Y-62.76
X215.89Y-73.54
X215.89Y-80.06
X218.43Y-56.24
X218.43Y-62.76
X218.43Y-73.54
X218.43Y-80.06
X221.68Y-105.8
X224.22Y-105.8
T4
X181.4Y-57.26
X181.4Y-59.8
X211.6Y-82.0
X211.6Y-84.54
X211.6Y-87.08
X211.6Y-89.62
X211.6Y-92.16
X211.6Y-94.7
X211.6Y-97.24
X211.6Y-99.78
X217.0Y-112.32
X217.0Y-114.86
X217.0Y-117.4
T5
X185.825Y-68.66
X185.825Y-71.2
X185.825Y-73.74
X185.825Y-76.28
X185.825Y-78.82
X185.825Y-81.36
X185.825Y-83.9
X185.825Y-86.44
X185.825Y-88.98
X185.825Y-91.52
X185.825Y-94.06
X185.825Y-96.6
X185.825Y-99.14
X185.825Y-101.68
X185.825Y-104.22
X185.825Y-106.76
X185.825Y-109.3
X185.825Y-111.84
X185.825Y-114.38
X185.825Y-116.92
X192.175Y-68.89
X194.715Y-68.89
X197.255Y-68.89
X203.605Y-68.66
X203.605Y-71.2
X203.605Y-73.74
X203.605Y-76.28
X203.605Y-78.82
X203.605Y-81.36
X203.605Y-83.9
X203.605Y-86.44
X203.605Y-88.98
X203.605Y-91.52
X203.605Y-94.06
X203.605Y-96.6
X203.605Y-99.14
X203.605Y-101.68
X203.605Y-104.22
X203.605Y-106.76
X203.605Y-109.3
X203.605Y-111.84
X203.605Y-114.38
X203.605Y-116.92
T6
X184.8Y-53.52
X184.8Y-63.68
X220.7Y-86.9
X220.7Y-93.4
X220.7Y-111.75
X220.7Y-118.25
X225.2Y-86.9
X225.2Y-93.4
X225.2Y-111.75
X225.2Y-118.25
T7
X221.2Y-53.2
X221.2Y-65.8
X221.2Y-70.5
X221.2Y-83.1
X222.0Y-59.5
X222.0Y-76.8
M30
