%TF.GenerationSoftware,KiCad,Pcbnew,9.0.7*%
%TF.CreationDate,2026-09-21T22:58:04+01:00*%
%TF.ProjectId,apple-adb,6170706c-652d-4616-9462-2e6b69636164,1.2*%
%TF.SameCoordinates,Original*%
%TF.FileFunction,Legend,Top*%
%TF.FilePolarity,Positive*%
%FSLAX46Y46*%
G04 Gerber Fmt 4.6, Leading zero omitted, Abs format (unit mm)*
G04 Created by KiCad (PCBNEW 9.0.7) date 2026-09-21 22:58:04*
%MOMM*%
%LPD*%
G01*
G04 APERTURE LIST*
%ADD10C,0.100000*%
%ADD11C,0.200000*%
%ADD12C,0.150000*%
%ADD13C,0.254000*%
%ADD14C,0.120000*%
G04 APERTURE END LIST*
D10*
X191133609Y-60177068D02*
X191133609Y-60415163D01*
X191133609Y-60415163D02*
X190633609Y-60415163D01*
X190633609Y-60081829D02*
X191133609Y-59915163D01*
X191133609Y-59915163D02*
X190633609Y-59748496D01*
X190681228Y-59605639D02*
X190657419Y-59581830D01*
X190657419Y-59581830D02*
X190633609Y-59534211D01*
X190633609Y-59534211D02*
X190633609Y-59415163D01*
X190633609Y-59415163D02*
X190657419Y-59367544D01*
X190657419Y-59367544D02*
X190681228Y-59343735D01*
X190681228Y-59343735D02*
X190728847Y-59319925D01*
X190728847Y-59319925D02*
X190776466Y-59319925D01*
X190776466Y-59319925D02*
X190847895Y-59343735D01*
X190847895Y-59343735D02*
X191133609Y-59629449D01*
X191133609Y-59629449D02*
X191133609Y-59319925D01*
X190943133Y-58724688D02*
X190943133Y-58343736D01*
X191133609Y-57724688D02*
X190633609Y-57724688D01*
X190871704Y-57724688D02*
X190871704Y-57438974D01*
X191133609Y-57438974D02*
X190633609Y-57438974D01*
X190633609Y-57272306D02*
X191133609Y-57105640D01*
X191133609Y-57105640D02*
X190633609Y-56938973D01*
X190681228Y-56796116D02*
X190657419Y-56772307D01*
X190657419Y-56772307D02*
X190633609Y-56724688D01*
X190633609Y-56724688D02*
X190633609Y-56605640D01*
X190633609Y-56605640D02*
X190657419Y-56558021D01*
X190657419Y-56558021D02*
X190681228Y-56534212D01*
X190681228Y-56534212D02*
X190728847Y-56510402D01*
X190728847Y-56510402D02*
X190776466Y-56510402D01*
X190776466Y-56510402D02*
X190847895Y-56534212D01*
X190847895Y-56534212D02*
X191133609Y-56819926D01*
X191133609Y-56819926D02*
X191133609Y-56510402D01*
X198733609Y-60177068D02*
X198733609Y-60415163D01*
X198733609Y-60415163D02*
X198233609Y-60415163D01*
X198233609Y-60081829D02*
X198733609Y-59915163D01*
X198733609Y-59915163D02*
X198233609Y-59748496D01*
X198233609Y-59629449D02*
X198233609Y-59319925D01*
X198233609Y-59319925D02*
X198424085Y-59486592D01*
X198424085Y-59486592D02*
X198424085Y-59415163D01*
X198424085Y-59415163D02*
X198447895Y-59367544D01*
X198447895Y-59367544D02*
X198471704Y-59343735D01*
X198471704Y-59343735D02*
X198519323Y-59319925D01*
X198519323Y-59319925D02*
X198638371Y-59319925D01*
X198638371Y-59319925D02*
X198685990Y-59343735D01*
X198685990Y-59343735D02*
X198709800Y-59367544D01*
X198709800Y-59367544D02*
X198733609Y-59415163D01*
X198733609Y-59415163D02*
X198733609Y-59558020D01*
X198733609Y-59558020D02*
X198709800Y-59605639D01*
X198709800Y-59605639D02*
X198685990Y-59629449D01*
X198543133Y-58724688D02*
X198543133Y-58343736D01*
X198733609Y-57724688D02*
X198233609Y-57724688D01*
X198471704Y-57724688D02*
X198471704Y-57438974D01*
X198733609Y-57438974D02*
X198233609Y-57438974D01*
X198233609Y-57272306D02*
X198733609Y-57105640D01*
X198733609Y-57105640D02*
X198233609Y-56938973D01*
X198233609Y-56819926D02*
X198233609Y-56510402D01*
X198233609Y-56510402D02*
X198424085Y-56677069D01*
X198424085Y-56677069D02*
X198424085Y-56605640D01*
X198424085Y-56605640D02*
X198447895Y-56558021D01*
X198447895Y-56558021D02*
X198471704Y-56534212D01*
X198471704Y-56534212D02*
X198519323Y-56510402D01*
X198519323Y-56510402D02*
X198638371Y-56510402D01*
X198638371Y-56510402D02*
X198685990Y-56534212D01*
X198685990Y-56534212D02*
X198709800Y-56558021D01*
X198709800Y-56558021D02*
X198733609Y-56605640D01*
X198733609Y-56605640D02*
X198733609Y-56748497D01*
X198733609Y-56748497D02*
X198709800Y-56796116D01*
X198709800Y-56796116D02*
X198685990Y-56819926D01*
D11*
X216428439Y-84522054D02*
X216428439Y-84998244D01*
X216142724Y-84426816D02*
X217142724Y-84760149D01*
X217142724Y-84760149D02*
X216142724Y-85093482D01*
X216142724Y-85426816D02*
X217142724Y-85426816D01*
X217142724Y-85426816D02*
X217142724Y-85664911D01*
X217142724Y-85664911D02*
X217095105Y-85807768D01*
X217095105Y-85807768D02*
X216999867Y-85903006D01*
X216999867Y-85903006D02*
X216904629Y-85950625D01*
X216904629Y-85950625D02*
X216714153Y-85998244D01*
X216714153Y-85998244D02*
X216571296Y-85998244D01*
X216571296Y-85998244D02*
X216380820Y-85950625D01*
X216380820Y-85950625D02*
X216285582Y-85903006D01*
X216285582Y-85903006D02*
X216190344Y-85807768D01*
X216190344Y-85807768D02*
X216142724Y-85664911D01*
X216142724Y-85664911D02*
X216142724Y-85426816D01*
X216666534Y-86760149D02*
X216618915Y-86903006D01*
X216618915Y-86903006D02*
X216571296Y-86950625D01*
X216571296Y-86950625D02*
X216476058Y-86998244D01*
X216476058Y-86998244D02*
X216333201Y-86998244D01*
X216333201Y-86998244D02*
X216237963Y-86950625D01*
X216237963Y-86950625D02*
X216190344Y-86903006D01*
X216190344Y-86903006D02*
X216142724Y-86807768D01*
X216142724Y-86807768D02*
X216142724Y-86426816D01*
X216142724Y-86426816D02*
X217142724Y-86426816D01*
X217142724Y-86426816D02*
X217142724Y-86760149D01*
X217142724Y-86760149D02*
X217095105Y-86855387D01*
X217095105Y-86855387D02*
X217047486Y-86903006D01*
X217047486Y-86903006D02*
X216952248Y-86950625D01*
X216952248Y-86950625D02*
X216857010Y-86950625D01*
X216857010Y-86950625D02*
X216761772Y-86903006D01*
X216761772Y-86903006D02*
X216714153Y-86855387D01*
X216714153Y-86855387D02*
X216666534Y-86760149D01*
X216666534Y-86760149D02*
X216666534Y-86426816D01*
X216523677Y-88188721D02*
X216523677Y-88950626D01*
X216809391Y-89426816D02*
X216523677Y-90188721D01*
X216523677Y-90188721D02*
X216237963Y-89426816D01*
X217142724Y-91426816D02*
X216333201Y-91426816D01*
X216333201Y-91426816D02*
X216237963Y-91474435D01*
X216237963Y-91474435D02*
X216190344Y-91522054D01*
X216190344Y-91522054D02*
X216142724Y-91617292D01*
X216142724Y-91617292D02*
X216142724Y-91807768D01*
X216142724Y-91807768D02*
X216190344Y-91903006D01*
X216190344Y-91903006D02*
X216237963Y-91950625D01*
X216237963Y-91950625D02*
X216333201Y-91998244D01*
X216333201Y-91998244D02*
X217142724Y-91998244D01*
X216190344Y-92426816D02*
X216142724Y-92569673D01*
X216142724Y-92569673D02*
X216142724Y-92807768D01*
X216142724Y-92807768D02*
X216190344Y-92903006D01*
X216190344Y-92903006D02*
X216237963Y-92950625D01*
X216237963Y-92950625D02*
X216333201Y-92998244D01*
X216333201Y-92998244D02*
X216428439Y-92998244D01*
X216428439Y-92998244D02*
X216523677Y-92950625D01*
X216523677Y-92950625D02*
X216571296Y-92903006D01*
X216571296Y-92903006D02*
X216618915Y-92807768D01*
X216618915Y-92807768D02*
X216666534Y-92617292D01*
X216666534Y-92617292D02*
X216714153Y-92522054D01*
X216714153Y-92522054D02*
X216761772Y-92474435D01*
X216761772Y-92474435D02*
X216857010Y-92426816D01*
X216857010Y-92426816D02*
X216952248Y-92426816D01*
X216952248Y-92426816D02*
X217047486Y-92474435D01*
X217047486Y-92474435D02*
X217095105Y-92522054D01*
X217095105Y-92522054D02*
X217142724Y-92617292D01*
X217142724Y-92617292D02*
X217142724Y-92855387D01*
X217142724Y-92855387D02*
X217095105Y-92998244D01*
X216666534Y-93760149D02*
X216618915Y-93903006D01*
X216618915Y-93903006D02*
X216571296Y-93950625D01*
X216571296Y-93950625D02*
X216476058Y-93998244D01*
X216476058Y-93998244D02*
X216333201Y-93998244D01*
X216333201Y-93998244D02*
X216237963Y-93950625D01*
X216237963Y-93950625D02*
X216190344Y-93903006D01*
X216190344Y-93903006D02*
X216142724Y-93807768D01*
X216142724Y-93807768D02*
X216142724Y-93426816D01*
X216142724Y-93426816D02*
X217142724Y-93426816D01*
X217142724Y-93426816D02*
X217142724Y-93760149D01*
X217142724Y-93760149D02*
X217095105Y-93855387D01*
X217095105Y-93855387D02*
X217047486Y-93903006D01*
X217047486Y-93903006D02*
X216952248Y-93950625D01*
X216952248Y-93950625D02*
X216857010Y-93950625D01*
X216857010Y-93950625D02*
X216761772Y-93903006D01*
X216761772Y-93903006D02*
X216714153Y-93855387D01*
X216714153Y-93855387D02*
X216666534Y-93760149D01*
X216666534Y-93760149D02*
X216666534Y-93426816D01*
X216523677Y-95188721D02*
X216523677Y-95950626D01*
X216142724Y-95569673D02*
X216904629Y-95569673D01*
X216666534Y-97522054D02*
X216618915Y-97664911D01*
X216618915Y-97664911D02*
X216571296Y-97712530D01*
X216571296Y-97712530D02*
X216476058Y-97760149D01*
X216476058Y-97760149D02*
X216333201Y-97760149D01*
X216333201Y-97760149D02*
X216237963Y-97712530D01*
X216237963Y-97712530D02*
X216190344Y-97664911D01*
X216190344Y-97664911D02*
X216142724Y-97569673D01*
X216142724Y-97569673D02*
X216142724Y-97188721D01*
X216142724Y-97188721D02*
X217142724Y-97188721D01*
X217142724Y-97188721D02*
X217142724Y-97522054D01*
X217142724Y-97522054D02*
X217095105Y-97617292D01*
X217095105Y-97617292D02*
X217047486Y-97664911D01*
X217047486Y-97664911D02*
X216952248Y-97712530D01*
X216952248Y-97712530D02*
X216857010Y-97712530D01*
X216857010Y-97712530D02*
X216761772Y-97664911D01*
X216761772Y-97664911D02*
X216714153Y-97617292D01*
X216714153Y-97617292D02*
X216666534Y-97522054D01*
X216666534Y-97522054D02*
X216666534Y-97188721D01*
X217142724Y-98045864D02*
X217142724Y-98617292D01*
X216142724Y-98331578D02*
X217142724Y-98331578D01*
X216523677Y-99712531D02*
X216523677Y-100474436D01*
X217142724Y-101569674D02*
X216142724Y-101903007D01*
X216142724Y-101903007D02*
X217142724Y-102236340D01*
X216142724Y-103093483D02*
X216142724Y-102522055D01*
X216142724Y-102807769D02*
X217142724Y-102807769D01*
X217142724Y-102807769D02*
X216999867Y-102712531D01*
X216999867Y-102712531D02*
X216904629Y-102617293D01*
X216904629Y-102617293D02*
X216857010Y-102522055D01*
X216237963Y-103522055D02*
X216190344Y-103569674D01*
X216190344Y-103569674D02*
X216142724Y-103522055D01*
X216142724Y-103522055D02*
X216190344Y-103474436D01*
X216190344Y-103474436D02*
X216237963Y-103522055D01*
X216237963Y-103522055D02*
X216142724Y-103522055D01*
X217047486Y-103950626D02*
X217095105Y-103998245D01*
X217095105Y-103998245D02*
X217142724Y-104093483D01*
X217142724Y-104093483D02*
X217142724Y-104331578D01*
X217142724Y-104331578D02*
X217095105Y-104426816D01*
X217095105Y-104426816D02*
X217047486Y-104474435D01*
X217047486Y-104474435D02*
X216952248Y-104522054D01*
X216952248Y-104522054D02*
X216857010Y-104522054D01*
X216857010Y-104522054D02*
X216714153Y-104474435D01*
X216714153Y-104474435D02*
X216142724Y-103903007D01*
X216142724Y-103903007D02*
X216142724Y-104522054D01*
X215199447Y-84474435D02*
X214532780Y-84664911D01*
X214532780Y-84664911D02*
X215008971Y-84855387D01*
X215008971Y-84855387D02*
X214532780Y-85045863D01*
X214532780Y-85045863D02*
X215199447Y-85236339D01*
X215199447Y-85522054D02*
X214532780Y-85712530D01*
X214532780Y-85712530D02*
X215008971Y-85903006D01*
X215008971Y-85903006D02*
X214532780Y-86093482D01*
X214532780Y-86093482D02*
X215199447Y-86283958D01*
X215199447Y-86569673D02*
X214532780Y-86760149D01*
X214532780Y-86760149D02*
X215008971Y-86950625D01*
X215008971Y-86950625D02*
X214532780Y-87141101D01*
X214532780Y-87141101D02*
X215199447Y-87331577D01*
X214628019Y-87712530D02*
X214580400Y-87760149D01*
X214580400Y-87760149D02*
X214532780Y-87712530D01*
X214532780Y-87712530D02*
X214580400Y-87664911D01*
X214580400Y-87664911D02*
X214628019Y-87712530D01*
X214628019Y-87712530D02*
X214532780Y-87712530D01*
X215199447Y-88617291D02*
X214532780Y-88617291D01*
X215199447Y-88188720D02*
X214675638Y-88188720D01*
X214675638Y-88188720D02*
X214580400Y-88236339D01*
X214580400Y-88236339D02*
X214532780Y-88331577D01*
X214532780Y-88331577D02*
X214532780Y-88474434D01*
X214532780Y-88474434D02*
X214580400Y-88569672D01*
X214580400Y-88569672D02*
X214628019Y-88617291D01*
X214532780Y-89236339D02*
X214580400Y-89141101D01*
X214580400Y-89141101D02*
X214675638Y-89093482D01*
X214675638Y-89093482D02*
X215532780Y-89093482D01*
X215199447Y-89474435D02*
X215199447Y-89855387D01*
X215532780Y-89617292D02*
X214675638Y-89617292D01*
X214675638Y-89617292D02*
X214580400Y-89664911D01*
X214580400Y-89664911D02*
X214532780Y-89760149D01*
X214532780Y-89760149D02*
X214532780Y-89855387D01*
X214532780Y-90188721D02*
X215199447Y-90188721D01*
X215008971Y-90188721D02*
X215104209Y-90236340D01*
X215104209Y-90236340D02*
X215151828Y-90283959D01*
X215151828Y-90283959D02*
X215199447Y-90379197D01*
X215199447Y-90379197D02*
X215199447Y-90474435D01*
X214532780Y-91236340D02*
X215056590Y-91236340D01*
X215056590Y-91236340D02*
X215151828Y-91188721D01*
X215151828Y-91188721D02*
X215199447Y-91093483D01*
X215199447Y-91093483D02*
X215199447Y-90903007D01*
X215199447Y-90903007D02*
X215151828Y-90807769D01*
X214580400Y-91236340D02*
X214532780Y-91141102D01*
X214532780Y-91141102D02*
X214532780Y-90903007D01*
X214532780Y-90903007D02*
X214580400Y-90807769D01*
X214580400Y-90807769D02*
X214675638Y-90760150D01*
X214675638Y-90760150D02*
X214770876Y-90760150D01*
X214770876Y-90760150D02*
X214866114Y-90807769D01*
X214866114Y-90807769D02*
X214913733Y-90903007D01*
X214913733Y-90903007D02*
X214913733Y-91141102D01*
X214913733Y-91141102D02*
X214961352Y-91236340D01*
X215199447Y-92141102D02*
X214532780Y-92141102D01*
X215199447Y-91712531D02*
X214675638Y-91712531D01*
X214675638Y-91712531D02*
X214580400Y-91760150D01*
X214580400Y-91760150D02*
X214532780Y-91855388D01*
X214532780Y-91855388D02*
X214532780Y-91998245D01*
X214532780Y-91998245D02*
X214580400Y-92093483D01*
X214580400Y-92093483D02*
X214628019Y-92141102D01*
X214580400Y-92569674D02*
X214532780Y-92664912D01*
X214532780Y-92664912D02*
X214532780Y-92855388D01*
X214532780Y-92855388D02*
X214580400Y-92950626D01*
X214580400Y-92950626D02*
X214675638Y-92998245D01*
X214675638Y-92998245D02*
X214723257Y-92998245D01*
X214723257Y-92998245D02*
X214818495Y-92950626D01*
X214818495Y-92950626D02*
X214866114Y-92855388D01*
X214866114Y-92855388D02*
X214866114Y-92712531D01*
X214866114Y-92712531D02*
X214913733Y-92617293D01*
X214913733Y-92617293D02*
X215008971Y-92569674D01*
X215008971Y-92569674D02*
X215056590Y-92569674D01*
X215056590Y-92569674D02*
X215151828Y-92617293D01*
X215151828Y-92617293D02*
X215199447Y-92712531D01*
X215199447Y-92712531D02*
X215199447Y-92855388D01*
X215199447Y-92855388D02*
X215151828Y-92950626D01*
X214532780Y-93426817D02*
X215532780Y-93426817D01*
X215151828Y-93426817D02*
X215199447Y-93522055D01*
X215199447Y-93522055D02*
X215199447Y-93712531D01*
X215199447Y-93712531D02*
X215151828Y-93807769D01*
X215151828Y-93807769D02*
X215104209Y-93855388D01*
X215104209Y-93855388D02*
X215008971Y-93903007D01*
X215008971Y-93903007D02*
X214723257Y-93903007D01*
X214723257Y-93903007D02*
X214628019Y-93855388D01*
X214628019Y-93855388D02*
X214580400Y-93807769D01*
X214580400Y-93807769D02*
X214532780Y-93712531D01*
X214532780Y-93712531D02*
X214532780Y-93522055D01*
X214532780Y-93522055D02*
X214580400Y-93426817D01*
X215199447Y-94188722D02*
X215199447Y-94569674D01*
X215532780Y-94331579D02*
X214675638Y-94331579D01*
X214675638Y-94331579D02*
X214580400Y-94379198D01*
X214580400Y-94379198D02*
X214532780Y-94474436D01*
X214532780Y-94474436D02*
X214532780Y-94569674D01*
X214628019Y-94903008D02*
X214580400Y-94950627D01*
X214580400Y-94950627D02*
X214532780Y-94903008D01*
X214532780Y-94903008D02*
X214580400Y-94855389D01*
X214580400Y-94855389D02*
X214628019Y-94903008D01*
X214628019Y-94903008D02*
X214532780Y-94903008D01*
X214580400Y-95807769D02*
X214532780Y-95712531D01*
X214532780Y-95712531D02*
X214532780Y-95522055D01*
X214532780Y-95522055D02*
X214580400Y-95426817D01*
X214580400Y-95426817D02*
X214628019Y-95379198D01*
X214628019Y-95379198D02*
X214723257Y-95331579D01*
X214723257Y-95331579D02*
X215008971Y-95331579D01*
X215008971Y-95331579D02*
X215104209Y-95379198D01*
X215104209Y-95379198D02*
X215151828Y-95426817D01*
X215151828Y-95426817D02*
X215199447Y-95522055D01*
X215199447Y-95522055D02*
X215199447Y-95712531D01*
X215199447Y-95712531D02*
X215151828Y-95807769D01*
X214532780Y-96379198D02*
X214580400Y-96283960D01*
X214580400Y-96283960D02*
X214628019Y-96236341D01*
X214628019Y-96236341D02*
X214723257Y-96188722D01*
X214723257Y-96188722D02*
X215008971Y-96188722D01*
X215008971Y-96188722D02*
X215104209Y-96236341D01*
X215104209Y-96236341D02*
X215151828Y-96283960D01*
X215151828Y-96283960D02*
X215199447Y-96379198D01*
X215199447Y-96379198D02*
X215199447Y-96522055D01*
X215199447Y-96522055D02*
X215151828Y-96617293D01*
X215151828Y-96617293D02*
X215104209Y-96664912D01*
X215104209Y-96664912D02*
X215008971Y-96712531D01*
X215008971Y-96712531D02*
X214723257Y-96712531D01*
X214723257Y-96712531D02*
X214628019Y-96664912D01*
X214628019Y-96664912D02*
X214580400Y-96617293D01*
X214580400Y-96617293D02*
X214532780Y-96522055D01*
X214532780Y-96522055D02*
X214532780Y-96379198D01*
X214532780Y-97141103D02*
X215199447Y-97141103D01*
X215104209Y-97141103D02*
X215151828Y-97188722D01*
X215151828Y-97188722D02*
X215199447Y-97283960D01*
X215199447Y-97283960D02*
X215199447Y-97426817D01*
X215199447Y-97426817D02*
X215151828Y-97522055D01*
X215151828Y-97522055D02*
X215056590Y-97569674D01*
X215056590Y-97569674D02*
X214532780Y-97569674D01*
X215056590Y-97569674D02*
X215151828Y-97617293D01*
X215151828Y-97617293D02*
X215199447Y-97712531D01*
X215199447Y-97712531D02*
X215199447Y-97855388D01*
X215199447Y-97855388D02*
X215151828Y-97950627D01*
X215151828Y-97950627D02*
X215056590Y-97998246D01*
X215056590Y-97998246D02*
X214532780Y-97998246D01*
D10*
X195857419Y-60353258D02*
X195833609Y-60400877D01*
X195833609Y-60400877D02*
X195833609Y-60472306D01*
X195833609Y-60472306D02*
X195857419Y-60543734D01*
X195857419Y-60543734D02*
X195905038Y-60591353D01*
X195905038Y-60591353D02*
X195952657Y-60615163D01*
X195952657Y-60615163D02*
X196047895Y-60638972D01*
X196047895Y-60638972D02*
X196119323Y-60638972D01*
X196119323Y-60638972D02*
X196214561Y-60615163D01*
X196214561Y-60615163D02*
X196262180Y-60591353D01*
X196262180Y-60591353D02*
X196309800Y-60543734D01*
X196309800Y-60543734D02*
X196333609Y-60472306D01*
X196333609Y-60472306D02*
X196333609Y-60424687D01*
X196333609Y-60424687D02*
X196309800Y-60353258D01*
X196309800Y-60353258D02*
X196285990Y-60329449D01*
X196285990Y-60329449D02*
X196119323Y-60329449D01*
X196119323Y-60329449D02*
X196119323Y-60424687D01*
X196333609Y-60115163D02*
X195833609Y-60115163D01*
X195833609Y-60115163D02*
X196333609Y-59829449D01*
X196333609Y-59829449D02*
X195833609Y-59829449D01*
X196333609Y-59591353D02*
X195833609Y-59591353D01*
X195833609Y-59591353D02*
X195833609Y-59472305D01*
X195833609Y-59472305D02*
X195857419Y-59400877D01*
X195857419Y-59400877D02*
X195905038Y-59353258D01*
X195905038Y-59353258D02*
X195952657Y-59329448D01*
X195952657Y-59329448D02*
X196047895Y-59305639D01*
X196047895Y-59305639D02*
X196119323Y-59305639D01*
X196119323Y-59305639D02*
X196214561Y-59329448D01*
X196214561Y-59329448D02*
X196262180Y-59353258D01*
X196262180Y-59353258D02*
X196309800Y-59400877D01*
X196309800Y-59400877D02*
X196333609Y-59472305D01*
X196333609Y-59472305D02*
X196333609Y-59591353D01*
X196143133Y-58710401D02*
X196143133Y-58329449D01*
X195857419Y-57448496D02*
X195833609Y-57496115D01*
X195833609Y-57496115D02*
X195833609Y-57567544D01*
X195833609Y-57567544D02*
X195857419Y-57638972D01*
X195857419Y-57638972D02*
X195905038Y-57686591D01*
X195905038Y-57686591D02*
X195952657Y-57710401D01*
X195952657Y-57710401D02*
X196047895Y-57734210D01*
X196047895Y-57734210D02*
X196119323Y-57734210D01*
X196119323Y-57734210D02*
X196214561Y-57710401D01*
X196214561Y-57710401D02*
X196262180Y-57686591D01*
X196262180Y-57686591D02*
X196309800Y-57638972D01*
X196309800Y-57638972D02*
X196333609Y-57567544D01*
X196333609Y-57567544D02*
X196333609Y-57519925D01*
X196333609Y-57519925D02*
X196309800Y-57448496D01*
X196309800Y-57448496D02*
X196285990Y-57424687D01*
X196285990Y-57424687D02*
X196119323Y-57424687D01*
X196119323Y-57424687D02*
X196119323Y-57519925D01*
X196333609Y-57210401D02*
X195833609Y-57210401D01*
X195833609Y-57210401D02*
X196333609Y-56924687D01*
X196333609Y-56924687D02*
X195833609Y-56924687D01*
X196333609Y-56686591D02*
X195833609Y-56686591D01*
X195833609Y-56686591D02*
X195833609Y-56567543D01*
X195833609Y-56567543D02*
X195857419Y-56496115D01*
X195857419Y-56496115D02*
X195905038Y-56448496D01*
X195905038Y-56448496D02*
X195952657Y-56424686D01*
X195952657Y-56424686D02*
X196047895Y-56400877D01*
X196047895Y-56400877D02*
X196119323Y-56400877D01*
X196119323Y-56400877D02*
X196214561Y-56424686D01*
X196214561Y-56424686D02*
X196262180Y-56448496D01*
X196262180Y-56448496D02*
X196309800Y-56496115D01*
X196309800Y-56496115D02*
X196333609Y-56567543D01*
X196333609Y-56567543D02*
X196333609Y-56686591D01*
X201333609Y-60177068D02*
X201333609Y-60415163D01*
X201333609Y-60415163D02*
X200833609Y-60415163D01*
X200833609Y-60081829D02*
X201333609Y-59915163D01*
X201333609Y-59915163D02*
X200833609Y-59748496D01*
X201000276Y-59367544D02*
X201333609Y-59367544D01*
X200809800Y-59486592D02*
X201166942Y-59605639D01*
X201166942Y-59605639D02*
X201166942Y-59296116D01*
X201143133Y-58724688D02*
X201143133Y-58343736D01*
X201333609Y-57724688D02*
X200833609Y-57724688D01*
X201071704Y-57724688D02*
X201071704Y-57438974D01*
X201333609Y-57438974D02*
X200833609Y-57438974D01*
X200833609Y-57272306D02*
X201333609Y-57105640D01*
X201333609Y-57105640D02*
X200833609Y-56938973D01*
X201000276Y-56558021D02*
X201333609Y-56558021D01*
X200809800Y-56677069D02*
X201166942Y-56796116D01*
X201166942Y-56796116D02*
X201166942Y-56486593D01*
D11*
X187569673Y-118067219D02*
X187569673Y-117067219D01*
X187569673Y-117067219D02*
X187950625Y-117067219D01*
X187950625Y-117067219D02*
X188045863Y-117114838D01*
X188045863Y-117114838D02*
X188093482Y-117162457D01*
X188093482Y-117162457D02*
X188141101Y-117257695D01*
X188141101Y-117257695D02*
X188141101Y-117400552D01*
X188141101Y-117400552D02*
X188093482Y-117495790D01*
X188093482Y-117495790D02*
X188045863Y-117543409D01*
X188045863Y-117543409D02*
X187950625Y-117591028D01*
X187950625Y-117591028D02*
X187569673Y-117591028D01*
X188569673Y-118067219D02*
X188569673Y-117400552D01*
X188569673Y-117067219D02*
X188522054Y-117114838D01*
X188522054Y-117114838D02*
X188569673Y-117162457D01*
X188569673Y-117162457D02*
X188617292Y-117114838D01*
X188617292Y-117114838D02*
X188569673Y-117067219D01*
X188569673Y-117067219D02*
X188569673Y-117162457D01*
X189474434Y-118019600D02*
X189379196Y-118067219D01*
X189379196Y-118067219D02*
X189188720Y-118067219D01*
X189188720Y-118067219D02*
X189093482Y-118019600D01*
X189093482Y-118019600D02*
X189045863Y-117971980D01*
X189045863Y-117971980D02*
X188998244Y-117876742D01*
X188998244Y-117876742D02*
X188998244Y-117591028D01*
X188998244Y-117591028D02*
X189045863Y-117495790D01*
X189045863Y-117495790D02*
X189093482Y-117448171D01*
X189093482Y-117448171D02*
X189188720Y-117400552D01*
X189188720Y-117400552D02*
X189379196Y-117400552D01*
X189379196Y-117400552D02*
X189474434Y-117448171D01*
X190045863Y-118067219D02*
X189950625Y-118019600D01*
X189950625Y-118019600D02*
X189903006Y-117971980D01*
X189903006Y-117971980D02*
X189855387Y-117876742D01*
X189855387Y-117876742D02*
X189855387Y-117591028D01*
X189855387Y-117591028D02*
X189903006Y-117495790D01*
X189903006Y-117495790D02*
X189950625Y-117448171D01*
X189950625Y-117448171D02*
X190045863Y-117400552D01*
X190045863Y-117400552D02*
X190188720Y-117400552D01*
X190188720Y-117400552D02*
X190283958Y-117448171D01*
X190283958Y-117448171D02*
X190331577Y-117495790D01*
X190331577Y-117495790D02*
X190379196Y-117591028D01*
X190379196Y-117591028D02*
X190379196Y-117876742D01*
X190379196Y-117876742D02*
X190331577Y-117971980D01*
X190331577Y-117971980D02*
X190283958Y-118019600D01*
X190283958Y-118019600D02*
X190188720Y-118067219D01*
X190188720Y-118067219D02*
X190045863Y-118067219D01*
X191569673Y-117067219D02*
X191569673Y-117876742D01*
X191569673Y-117876742D02*
X191617292Y-117971980D01*
X191617292Y-117971980D02*
X191664911Y-118019600D01*
X191664911Y-118019600D02*
X191760149Y-118067219D01*
X191760149Y-118067219D02*
X191950625Y-118067219D01*
X191950625Y-118067219D02*
X192045863Y-118019600D01*
X192045863Y-118019600D02*
X192093482Y-117971980D01*
X192093482Y-117971980D02*
X192141101Y-117876742D01*
X192141101Y-117876742D02*
X192141101Y-117067219D01*
X192569673Y-118019600D02*
X192712530Y-118067219D01*
X192712530Y-118067219D02*
X192950625Y-118067219D01*
X192950625Y-118067219D02*
X193045863Y-118019600D01*
X193045863Y-118019600D02*
X193093482Y-117971980D01*
X193093482Y-117971980D02*
X193141101Y-117876742D01*
X193141101Y-117876742D02*
X193141101Y-117781504D01*
X193141101Y-117781504D02*
X193093482Y-117686266D01*
X193093482Y-117686266D02*
X193045863Y-117638647D01*
X193045863Y-117638647D02*
X192950625Y-117591028D01*
X192950625Y-117591028D02*
X192760149Y-117543409D01*
X192760149Y-117543409D02*
X192664911Y-117495790D01*
X192664911Y-117495790D02*
X192617292Y-117448171D01*
X192617292Y-117448171D02*
X192569673Y-117352933D01*
X192569673Y-117352933D02*
X192569673Y-117257695D01*
X192569673Y-117257695D02*
X192617292Y-117162457D01*
X192617292Y-117162457D02*
X192664911Y-117114838D01*
X192664911Y-117114838D02*
X192760149Y-117067219D01*
X192760149Y-117067219D02*
X192998244Y-117067219D01*
X192998244Y-117067219D02*
X193141101Y-117114838D01*
X193903006Y-117543409D02*
X194045863Y-117591028D01*
X194045863Y-117591028D02*
X194093482Y-117638647D01*
X194093482Y-117638647D02*
X194141101Y-117733885D01*
X194141101Y-117733885D02*
X194141101Y-117876742D01*
X194141101Y-117876742D02*
X194093482Y-117971980D01*
X194093482Y-117971980D02*
X194045863Y-118019600D01*
X194045863Y-118019600D02*
X193950625Y-118067219D01*
X193950625Y-118067219D02*
X193569673Y-118067219D01*
X193569673Y-118067219D02*
X193569673Y-117067219D01*
X193569673Y-117067219D02*
X193903006Y-117067219D01*
X193903006Y-117067219D02*
X193998244Y-117114838D01*
X193998244Y-117114838D02*
X194045863Y-117162457D01*
X194045863Y-117162457D02*
X194093482Y-117257695D01*
X194093482Y-117257695D02*
X194093482Y-117352933D01*
X194093482Y-117352933D02*
X194045863Y-117448171D01*
X194045863Y-117448171D02*
X193998244Y-117495790D01*
X193998244Y-117495790D02*
X193903006Y-117543409D01*
X193903006Y-117543409D02*
X193569673Y-117543409D01*
X195188721Y-117400552D02*
X195569673Y-117400552D01*
X195331578Y-117067219D02*
X195331578Y-117924361D01*
X195331578Y-117924361D02*
X195379197Y-118019600D01*
X195379197Y-118019600D02*
X195474435Y-118067219D01*
X195474435Y-118067219D02*
X195569673Y-118067219D01*
X195903007Y-118067219D02*
X195903007Y-117067219D01*
X196331578Y-118067219D02*
X196331578Y-117543409D01*
X196331578Y-117543409D02*
X196283959Y-117448171D01*
X196283959Y-117448171D02*
X196188721Y-117400552D01*
X196188721Y-117400552D02*
X196045864Y-117400552D01*
X196045864Y-117400552D02*
X195950626Y-117448171D01*
X195950626Y-117448171D02*
X195903007Y-117495790D01*
X196807769Y-118067219D02*
X196807769Y-117400552D01*
X196807769Y-117067219D02*
X196760150Y-117114838D01*
X196760150Y-117114838D02*
X196807769Y-117162457D01*
X196807769Y-117162457D02*
X196855388Y-117114838D01*
X196855388Y-117114838D02*
X196807769Y-117067219D01*
X196807769Y-117067219D02*
X196807769Y-117162457D01*
X197236340Y-118019600D02*
X197331578Y-118067219D01*
X197331578Y-118067219D02*
X197522054Y-118067219D01*
X197522054Y-118067219D02*
X197617292Y-118019600D01*
X197617292Y-118019600D02*
X197664911Y-117924361D01*
X197664911Y-117924361D02*
X197664911Y-117876742D01*
X197664911Y-117876742D02*
X197617292Y-117781504D01*
X197617292Y-117781504D02*
X197522054Y-117733885D01*
X197522054Y-117733885D02*
X197379197Y-117733885D01*
X197379197Y-117733885D02*
X197283959Y-117686266D01*
X197283959Y-117686266D02*
X197236340Y-117591028D01*
X197236340Y-117591028D02*
X197236340Y-117543409D01*
X197236340Y-117543409D02*
X197283959Y-117448171D01*
X197283959Y-117448171D02*
X197379197Y-117400552D01*
X197379197Y-117400552D02*
X197522054Y-117400552D01*
X197522054Y-117400552D02*
X197617292Y-117448171D01*
X199236340Y-118019600D02*
X199141102Y-118067219D01*
X199141102Y-118067219D02*
X198950626Y-118067219D01*
X198950626Y-118067219D02*
X198855388Y-118019600D01*
X198855388Y-118019600D02*
X198807769Y-117924361D01*
X198807769Y-117924361D02*
X198807769Y-117543409D01*
X198807769Y-117543409D02*
X198855388Y-117448171D01*
X198855388Y-117448171D02*
X198950626Y-117400552D01*
X198950626Y-117400552D02*
X199141102Y-117400552D01*
X199141102Y-117400552D02*
X199236340Y-117448171D01*
X199236340Y-117448171D02*
X199283959Y-117543409D01*
X199283959Y-117543409D02*
X199283959Y-117638647D01*
X199283959Y-117638647D02*
X198807769Y-117733885D01*
X199712531Y-117400552D02*
X199712531Y-118067219D01*
X199712531Y-117495790D02*
X199760150Y-117448171D01*
X199760150Y-117448171D02*
X199855388Y-117400552D01*
X199855388Y-117400552D02*
X199998245Y-117400552D01*
X199998245Y-117400552D02*
X200093483Y-117448171D01*
X200093483Y-117448171D02*
X200141102Y-117543409D01*
X200141102Y-117543409D02*
X200141102Y-118067219D01*
X201045864Y-118067219D02*
X201045864Y-117067219D01*
X201045864Y-118019600D02*
X200950626Y-118067219D01*
X200950626Y-118067219D02*
X200760150Y-118067219D01*
X200760150Y-118067219D02*
X200664912Y-118019600D01*
X200664912Y-118019600D02*
X200617293Y-117971980D01*
X200617293Y-117971980D02*
X200569674Y-117876742D01*
X200569674Y-117876742D02*
X200569674Y-117591028D01*
X200569674Y-117591028D02*
X200617293Y-117495790D01*
X200617293Y-117495790D02*
X200664912Y-117448171D01*
X200664912Y-117448171D02*
X200760150Y-117400552D01*
X200760150Y-117400552D02*
X200950626Y-117400552D01*
X200950626Y-117400552D02*
X201045864Y-117448171D01*
D10*
X193733609Y-59977068D02*
X193733609Y-60215163D01*
X193733609Y-60215163D02*
X193233609Y-60215163D01*
X193233609Y-59881829D02*
X193733609Y-59715163D01*
X193733609Y-59715163D02*
X193233609Y-59548496D01*
X193543133Y-58619926D02*
X193543133Y-58238974D01*
X193733609Y-57619926D02*
X193233609Y-57619926D01*
X193471704Y-57619926D02*
X193471704Y-57334212D01*
X193733609Y-57334212D02*
X193233609Y-57334212D01*
X193233609Y-57167544D02*
X193733609Y-57000878D01*
X193733609Y-57000878D02*
X193233609Y-56834211D01*
X188533609Y-60177068D02*
X188533609Y-60415163D01*
X188533609Y-60415163D02*
X188033609Y-60415163D01*
X188033609Y-60081829D02*
X188533609Y-59915163D01*
X188533609Y-59915163D02*
X188033609Y-59748496D01*
X188533609Y-59319925D02*
X188533609Y-59605639D01*
X188533609Y-59462782D02*
X188033609Y-59462782D01*
X188033609Y-59462782D02*
X188105038Y-59510401D01*
X188105038Y-59510401D02*
X188152657Y-59558020D01*
X188152657Y-59558020D02*
X188176466Y-59605639D01*
X188343133Y-58724688D02*
X188343133Y-58343736D01*
X188533609Y-57724688D02*
X188033609Y-57724688D01*
X188271704Y-57724688D02*
X188271704Y-57438974D01*
X188533609Y-57438974D02*
X188033609Y-57438974D01*
X188033609Y-57272306D02*
X188533609Y-57105640D01*
X188533609Y-57105640D02*
X188033609Y-56938973D01*
X188533609Y-56510402D02*
X188533609Y-56796116D01*
X188533609Y-56653259D02*
X188033609Y-56653259D01*
X188033609Y-56653259D02*
X188105038Y-56700878D01*
X188105038Y-56700878D02*
X188152657Y-56748497D01*
X188152657Y-56748497D02*
X188176466Y-56796116D01*
D12*
X198605475Y-66914200D02*
X198719761Y-66952295D01*
X198719761Y-66952295D02*
X198910237Y-66952295D01*
X198910237Y-66952295D02*
X198986428Y-66914200D01*
X198986428Y-66914200D02*
X199024523Y-66876104D01*
X199024523Y-66876104D02*
X199062618Y-66799914D01*
X199062618Y-66799914D02*
X199062618Y-66723723D01*
X199062618Y-66723723D02*
X199024523Y-66647533D01*
X199024523Y-66647533D02*
X198986428Y-66609438D01*
X198986428Y-66609438D02*
X198910237Y-66571342D01*
X198910237Y-66571342D02*
X198757856Y-66533247D01*
X198757856Y-66533247D02*
X198681666Y-66495152D01*
X198681666Y-66495152D02*
X198643571Y-66457057D01*
X198643571Y-66457057D02*
X198605475Y-66380866D01*
X198605475Y-66380866D02*
X198605475Y-66304676D01*
X198605475Y-66304676D02*
X198643571Y-66228485D01*
X198643571Y-66228485D02*
X198681666Y-66190390D01*
X198681666Y-66190390D02*
X198757856Y-66152295D01*
X198757856Y-66152295D02*
X198948333Y-66152295D01*
X198948333Y-66152295D02*
X199062618Y-66190390D01*
X199329285Y-66152295D02*
X199519761Y-66952295D01*
X199519761Y-66952295D02*
X199672142Y-66380866D01*
X199672142Y-66380866D02*
X199824523Y-66952295D01*
X199824523Y-66952295D02*
X200015000Y-66152295D01*
X200776905Y-66876104D02*
X200738809Y-66914200D01*
X200738809Y-66914200D02*
X200624524Y-66952295D01*
X200624524Y-66952295D02*
X200548333Y-66952295D01*
X200548333Y-66952295D02*
X200434047Y-66914200D01*
X200434047Y-66914200D02*
X200357857Y-66838009D01*
X200357857Y-66838009D02*
X200319762Y-66761819D01*
X200319762Y-66761819D02*
X200281666Y-66609438D01*
X200281666Y-66609438D02*
X200281666Y-66495152D01*
X200281666Y-66495152D02*
X200319762Y-66342771D01*
X200319762Y-66342771D02*
X200357857Y-66266580D01*
X200357857Y-66266580D02*
X200434047Y-66190390D01*
X200434047Y-66190390D02*
X200548333Y-66152295D01*
X200548333Y-66152295D02*
X200624524Y-66152295D01*
X200624524Y-66152295D02*
X200738809Y-66190390D01*
X200738809Y-66190390D02*
X200776905Y-66228485D01*
X201500714Y-66952295D02*
X201119762Y-66952295D01*
X201119762Y-66952295D02*
X201119762Y-66152295D01*
X201767381Y-66952295D02*
X201767381Y-66152295D01*
X202224524Y-66952295D02*
X201881666Y-66495152D01*
X202224524Y-66152295D02*
X201767381Y-66609438D01*
X187419761Y-66914200D02*
X187534047Y-66952295D01*
X187534047Y-66952295D02*
X187724523Y-66952295D01*
X187724523Y-66952295D02*
X187800714Y-66914200D01*
X187800714Y-66914200D02*
X187838809Y-66876104D01*
X187838809Y-66876104D02*
X187876904Y-66799914D01*
X187876904Y-66799914D02*
X187876904Y-66723723D01*
X187876904Y-66723723D02*
X187838809Y-66647533D01*
X187838809Y-66647533D02*
X187800714Y-66609438D01*
X187800714Y-66609438D02*
X187724523Y-66571342D01*
X187724523Y-66571342D02*
X187572142Y-66533247D01*
X187572142Y-66533247D02*
X187495952Y-66495152D01*
X187495952Y-66495152D02*
X187457857Y-66457057D01*
X187457857Y-66457057D02*
X187419761Y-66380866D01*
X187419761Y-66380866D02*
X187419761Y-66304676D01*
X187419761Y-66304676D02*
X187457857Y-66228485D01*
X187457857Y-66228485D02*
X187495952Y-66190390D01*
X187495952Y-66190390D02*
X187572142Y-66152295D01*
X187572142Y-66152295D02*
X187762619Y-66152295D01*
X187762619Y-66152295D02*
X187876904Y-66190390D01*
X188143571Y-66152295D02*
X188334047Y-66952295D01*
X188334047Y-66952295D02*
X188486428Y-66380866D01*
X188486428Y-66380866D02*
X188638809Y-66952295D01*
X188638809Y-66952295D02*
X188829286Y-66152295D01*
X189134048Y-66952295D02*
X189134048Y-66152295D01*
X189134048Y-66152295D02*
X189324524Y-66152295D01*
X189324524Y-66152295D02*
X189438810Y-66190390D01*
X189438810Y-66190390D02*
X189515000Y-66266580D01*
X189515000Y-66266580D02*
X189553095Y-66342771D01*
X189553095Y-66342771D02*
X189591191Y-66495152D01*
X189591191Y-66495152D02*
X189591191Y-66609438D01*
X189591191Y-66609438D02*
X189553095Y-66761819D01*
X189553095Y-66761819D02*
X189515000Y-66838009D01*
X189515000Y-66838009D02*
X189438810Y-66914200D01*
X189438810Y-66914200D02*
X189324524Y-66952295D01*
X189324524Y-66952295D02*
X189134048Y-66952295D01*
X189934048Y-66952295D02*
X189934048Y-66152295D01*
X190467381Y-66152295D02*
X190619762Y-66152295D01*
X190619762Y-66152295D02*
X190695952Y-66190390D01*
X190695952Y-66190390D02*
X190772143Y-66266580D01*
X190772143Y-66266580D02*
X190810238Y-66418961D01*
X190810238Y-66418961D02*
X190810238Y-66685628D01*
X190810238Y-66685628D02*
X190772143Y-66838009D01*
X190772143Y-66838009D02*
X190695952Y-66914200D01*
X190695952Y-66914200D02*
X190619762Y-66952295D01*
X190619762Y-66952295D02*
X190467381Y-66952295D01*
X190467381Y-66952295D02*
X190391190Y-66914200D01*
X190391190Y-66914200D02*
X190315000Y-66838009D01*
X190315000Y-66838009D02*
X190276904Y-66685628D01*
X190276904Y-66685628D02*
X190276904Y-66418961D01*
X190276904Y-66418961D02*
X190315000Y-66266580D01*
X190315000Y-66266580D02*
X190391190Y-66190390D01*
X190391190Y-66190390D02*
X190467381Y-66152295D01*
X220274819Y-107133332D02*
X219274819Y-107133332D01*
X219274819Y-107133332D02*
X219274819Y-106752380D01*
X219274819Y-106752380D02*
X219322438Y-106657142D01*
X219322438Y-106657142D02*
X219370057Y-106609523D01*
X219370057Y-106609523D02*
X219465295Y-106561904D01*
X219465295Y-106561904D02*
X219608152Y-106561904D01*
X219608152Y-106561904D02*
X219703390Y-106609523D01*
X219703390Y-106609523D02*
X219751009Y-106657142D01*
X219751009Y-106657142D02*
X219798628Y-106752380D01*
X219798628Y-106752380D02*
X219798628Y-107133332D01*
X219274819Y-106228570D02*
X220274819Y-105990475D01*
X220274819Y-105990475D02*
X219560533Y-105799999D01*
X219560533Y-105799999D02*
X220274819Y-105609523D01*
X220274819Y-105609523D02*
X219274819Y-105371428D01*
X220274819Y-104419047D02*
X219798628Y-104752380D01*
X220274819Y-104990475D02*
X219274819Y-104990475D01*
X219274819Y-104990475D02*
X219274819Y-104609523D01*
X219274819Y-104609523D02*
X219322438Y-104514285D01*
X219322438Y-104514285D02*
X219370057Y-104466666D01*
X219370057Y-104466666D02*
X219465295Y-104419047D01*
X219465295Y-104419047D02*
X219608152Y-104419047D01*
X219608152Y-104419047D02*
X219703390Y-104466666D01*
X219703390Y-104466666D02*
X219751009Y-104514285D01*
X219751009Y-104514285D02*
X219798628Y-104609523D01*
X219798628Y-104609523D02*
X219798628Y-104990475D01*
D13*
%TO.C,J1*%
X213700140Y-52502300D02*
X219201780Y-52502300D01*
X213700140Y-66497700D02*
X213700140Y-52502300D01*
X219201780Y-66497700D02*
X213700140Y-66497700D01*
X223199740Y-52502300D02*
X226699860Y-52502300D01*
X226699860Y-52502300D02*
X226699860Y-66497700D01*
X226699860Y-66497700D02*
X223199740Y-66497700D01*
D14*
%TO.C,ADB-Power1*%
X180070000Y-58530000D02*
X180070000Y-61130000D01*
X180070000Y-58530000D02*
X182730000Y-58530000D01*
X180070000Y-61130000D02*
X182730000Y-61130000D01*
X181400000Y-55930000D02*
X182730000Y-55930000D01*
X182730000Y-55930000D02*
X182730000Y-57260000D01*
X182730000Y-58530000D02*
X182730000Y-61130000D01*
%TO.C,ADB-Pwr-on1*%
X219700000Y-87900000D02*
X219700000Y-92400000D01*
X222200000Y-93650000D02*
X223700000Y-93650000D01*
X223700000Y-86650000D02*
X222200000Y-86650000D01*
X226200000Y-92400000D02*
X226200000Y-87900000D01*
%TO.C,Reset1*%
X219700000Y-112750000D02*
X219700000Y-117250000D01*
X222200000Y-118500000D02*
X223700000Y-118500000D01*
X223700000Y-111500000D02*
X222200000Y-111500000D01*
X226200000Y-117250000D02*
X226200000Y-112750000D01*
%TO.C,U1*%
X184215000Y-67290000D02*
X191015000Y-67290000D01*
X184215000Y-70090000D02*
X184215000Y-69690000D01*
X184215000Y-72690000D02*
X184215000Y-72290000D01*
X184215000Y-75190000D02*
X184215000Y-74790000D01*
X184215000Y-77690000D02*
X184215000Y-77290000D01*
X184215000Y-80290000D02*
X184215000Y-79890000D01*
X184215000Y-82790000D02*
X184215000Y-82390000D01*
X184215000Y-85390000D02*
X184215000Y-84990000D01*
X184215000Y-87890000D02*
X184215000Y-87490000D01*
X184215000Y-90490000D02*
X184215000Y-90090000D01*
X184215000Y-92990000D02*
X184215000Y-92590000D01*
X184215000Y-95490000D02*
X184215000Y-95090000D01*
X184215000Y-98090000D02*
X184215000Y-97690000D01*
X184215000Y-100590000D02*
X184215000Y-100190000D01*
X184215000Y-103190000D02*
X184215000Y-102790000D01*
X184215000Y-105690000D02*
X184215000Y-105290000D01*
X184215000Y-108190000D02*
X184215000Y-107790000D01*
X184215000Y-110790000D02*
X184215000Y-110390000D01*
X184215000Y-113290000D02*
X184215000Y-112890000D01*
X184215000Y-115890000D02*
X184215000Y-115490000D01*
X184215000Y-118290000D02*
X184215000Y-117990000D01*
X193615000Y-67290000D02*
X193215000Y-67290000D01*
X196215000Y-67290000D02*
X195815000Y-67290000D01*
X198415000Y-67290000D02*
X205215000Y-67290000D01*
X202208000Y-115623000D02*
X202208000Y-118290000D01*
X205215000Y-70090000D02*
X205215000Y-69690000D01*
X205215000Y-72690000D02*
X205215000Y-72290000D01*
X205215000Y-75190000D02*
X205215000Y-74790000D01*
X205215000Y-77690000D02*
X205215000Y-77290000D01*
X205215000Y-80290000D02*
X205215000Y-79890000D01*
X205215000Y-82790000D02*
X205215000Y-82390000D01*
X205215000Y-85390000D02*
X205215000Y-84990000D01*
X205215000Y-87890000D02*
X205215000Y-87490000D01*
X205215000Y-90490000D02*
X205215000Y-90090000D01*
X205215000Y-92990000D02*
X205215000Y-92590000D01*
X205215000Y-95490000D02*
X205215000Y-95090000D01*
X205215000Y-98090000D02*
X205215000Y-97690000D01*
X205215000Y-100590000D02*
X205215000Y-100190000D01*
X205215000Y-103190000D02*
X205215000Y-102790000D01*
X205215000Y-105690000D02*
X205215000Y-105290000D01*
X205215000Y-108190000D02*
X205215000Y-107790000D01*
X205215000Y-110790000D02*
X205215000Y-110390000D01*
X205215000Y-113290000D02*
X205215000Y-112890000D01*
X205215000Y-115623000D02*
X202208000Y-115623000D01*
X205215000Y-115890000D02*
X205215000Y-115490000D01*
X205215000Y-118290000D02*
X184215000Y-118290000D01*
X205215000Y-118290000D02*
X205215000Y-117990000D01*
D13*
%TO.C,J2*%
X213700140Y-69802300D02*
X219201780Y-69802300D01*
X213700140Y-83797700D02*
X213700140Y-69802300D01*
X219201780Y-83797700D02*
X213700140Y-83797700D01*
X223199740Y-69802300D02*
X226699860Y-69802300D01*
X226699860Y-69802300D02*
X226699860Y-83797700D01*
X226699860Y-83797700D02*
X223199740Y-83797700D01*
D14*
%TO.C,Display1*%
X210270000Y-83270000D02*
X210270000Y-101110000D01*
X210270000Y-83270000D02*
X212930000Y-83270000D01*
X210270000Y-101110000D02*
X212930000Y-101110000D01*
X211600000Y-80670000D02*
X212930000Y-80670000D01*
X212930000Y-80670000D02*
X212930000Y-82000000D01*
X212930000Y-83270000D02*
X212930000Y-101110000D01*
%TO.C,R2-ADB-PU1*%
X209400000Y-56540000D02*
X209400000Y-57490000D01*
X209400000Y-62280000D02*
X209400000Y-61330000D01*
X208480000Y-61330000D02*
X210320000Y-61330000D01*
X210320000Y-57490000D01*
X208480000Y-57490000D01*
X208480000Y-61330000D01*
%TO.C,Debug1*%
X215670000Y-116130000D02*
X215670000Y-110990000D01*
X215670000Y-118730000D02*
X215670000Y-117400000D01*
X217000000Y-118730000D02*
X215670000Y-118730000D01*
X218330000Y-110990000D02*
X215670000Y-110990000D01*
X218330000Y-116130000D02*
X215670000Y-116130000D01*
X218330000Y-116130000D02*
X218330000Y-110990000D01*
%TO.C,D2*%
X183330000Y-60300000D02*
X186270000Y-60300000D01*
X183330000Y-60420000D02*
X186270000Y-60420000D01*
X183330000Y-60540000D02*
X186270000Y-60540000D01*
X184800000Y-54860000D02*
X184800000Y-55880000D01*
X184800000Y-62340000D02*
X184800000Y-61320000D01*
X183330000Y-61320000D02*
X186270000Y-61320000D01*
X186270000Y-55880000D01*
X183330000Y-55880000D01*
X183330000Y-61320000D01*
%TO.C,R1-PWR-LED1*%
X219730000Y-98600000D02*
X220680000Y-98600000D01*
X225470000Y-98600000D02*
X224520000Y-98600000D01*
X224520000Y-99520000D02*
X220680000Y-99520000D01*
X220680000Y-97680000D01*
X224520000Y-97680000D01*
X224520000Y-99520000D01*
%TO.C,PWR*%
X224510000Y-104720000D02*
X224510000Y-104564000D01*
X224510000Y-107036000D02*
X224510000Y-106880000D01*
X221278563Y-104720000D02*
G75*
G02*
X224510000Y-104564484I1671437J-1080000D01*
G01*
X221909039Y-104720000D02*
G75*
G02*
X223990961Y-104720000I1040961J-1080000D01*
G01*
X223990961Y-106880000D02*
G75*
G02*
X221909039Y-106880000I-1040961J1080000D01*
G01*
X224510000Y-107035516D02*
G75*
G02*
X221278563Y-106880000I-1560000J1235516D01*
G01*
%TO.C,llc1*%
X187035000Y-55285000D02*
X187035000Y-57520000D01*
X187035000Y-59520000D02*
X187035000Y-61755000D01*
X187035000Y-61755000D02*
X202395000Y-61755000D01*
X202395000Y-55285000D02*
X187035000Y-55285000D01*
X202395000Y-61755000D02*
X202395000Y-55285000D01*
X187035000Y-57520000D02*
G75*
G02*
X187035000Y-59520000I0J-1000000D01*
G01*
%TD*%
M02*
